<svg width="1024" height="1024" viewBox="0 0 1024 1024" fill="none" xmlns="http://www.w3.org/2000/svg">
<mask id="mask0_4_100" style="mask-type:alpha" maskUnits="userSpaceOnUse" x="0" y="0" width="1024" height="1024">
<path d="M0 339.968C0 60.0043 60.0043 0 339.968 0H684.032C963.996 0 1024 60.0043 1024 339.968V684.032C1024 963.996 963.996 1024 684.032 1024H339.968C60.0043 1024 0 963.996 0 684.032V339.968Z" fill="black"/>
</mask>
<g mask="url(#mask0_4_100)">
<rect width="1024" height="1024" fill="url(#paint0_linear_4_100)"/>
<path d="M2.19995 339.968C2.19995 270.023 5.95039 213.952 15.9024 169.172C25.8494 124.415 41.9651 91.0585 66.6118 66.4118C91.2585 41.7652 124.615 25.6495 169.372 15.7025C214.152 5.75043 270.223 2 340.168 2H684.232C754.177 2 810.247 5.75043 855.028 15.7025C899.785 25.6495 933.141 41.7652 957.788 66.4118C982.435 91.0585 998.55 124.415 1008.5 169.172C1018.45 213.952 1022.2 270.023 1022.2 339.968V684.032C1022.2 753.977 1018.45 810.048 1008.5 854.828C998.55 899.585 982.435 932.941 957.788 957.588C933.141 982.235 899.785 998.351 855.028 1008.3C810.247 1018.25 754.177 1022 684.232 1022H340.168C270.223 1022 214.152 1018.25 169.372 1008.3C124.615 998.351 91.2585 982.235 66.6118 957.588C41.9651 932.941 25.8494 899.585 15.9024 854.828C5.95039 810.048 2.19995 753.977 2.19995 684.032V339.968Z" stroke="#777777" stroke-width="4"/>
<path d="M524.517 512.494C524.517 550.095 517.206 581.814 502.583 607.652C487.96 633.379 468.225 652.894 443.377 666.198C418.529 679.391 390.823 685.988 360.258 685.988C329.474 685.988 301.658 679.336 276.81 666.033C252.072 652.619 232.392 633.049 217.769 607.322C203.256 581.485 196 549.875 196 512.494C196 474.893 203.256 443.228 217.769 417.501C232.392 391.664 252.072 372.149 276.81 358.955C301.658 345.652 329.474 339 360.258 339C390.823 339 418.529 345.652 443.377 358.955C468.225 372.149 487.96 391.664 502.583 417.501C517.206 443.228 524.517 474.893 524.517 512.494ZM430.184 512.494C430.184 492.264 427.49 475.222 422.103 461.369C416.825 447.406 408.964 436.851 398.519 429.705C388.185 422.449 375.431 418.82 360.258 418.82C345.086 418.82 332.277 422.449 321.833 429.705C311.498 436.851 303.637 447.406 298.249 461.369C292.972 475.222 290.333 492.264 290.333 512.494C290.333 532.724 292.972 549.82 298.249 563.783C303.637 577.637 311.498 588.191 321.833 595.448C332.277 602.594 345.086 606.167 360.258 606.167C375.431 606.167 388.185 602.594 398.519 595.448C408.964 588.191 416.825 577.637 422.103 563.783C427.49 549.82 430.184 532.724 430.184 512.494Z" fill="url(#paint1_linear_4_100)"/>
<path d="M650.061 621.34L650.72 513.154H662.595L723.944 428.056H826.193L723.284 560.65H697.557L650.061 621.34ZM568.261 681.37V343.618H659.296V681.37H568.261ZM724.604 681.37L666.553 581.1L725.923 516.452L828.832 681.37H724.604Z" fill="url(#paint2_linear_4_100)"/>
</g>
<defs>
<linearGradient id="paint0_linear_4_100" x1="0" y1="0" x2="1024" y2="1024" gradientUnits="userSpaceOnUse">
<stop stop-color="#3A3A3A"/>
<stop offset="1" stop-color="#222222"/>
</linearGradient>
<linearGradient id="paint1_linear_4_100" x1="196" y1="510.699" x2="828.832" y2="510.699" gradientUnits="userSpaceOnUse">
<stop stop-color="#FF4994"/>
<stop offset="0.114583" stop-color="#FF7D3A"/>
<stop offset="0.239583" stop-color="#FFD03B"/>
<stop offset="0.369792" stop-color="#95FF46"/>
<stop offset="0.494792" stop-color="#42F8FF"/>
<stop offset="0.619792" stop-color="#3ECFFF"/>
<stop offset="0.744792" stop-color="#4154FF"/>
<stop offset="0.869792" stop-color="#CF4FFF"/>
<stop offset="1" stop-color="#FF4994"/>
</linearGradient>
<linearGradient id="paint2_linear_4_100" x1="196" y1="510.699" x2="828.832" y2="510.699" gradientUnits="userSpaceOnUse">
<stop stop-color="#FF4994"/>
<stop offset="0.114583" stop-color="#FF7D3A"/>
<stop offset="0.239583" stop-color="#FFD03B"/>
<stop offset="0.369792" stop-color="#95FF46"/>
<stop offset="0.494792" stop-color="#42F8FF"/>
<stop offset="0.619792" stop-color="#3ECFFF"/>
<stop offset="0.744792" stop-color="#4154FF"/>
<stop offset="0.869792" stop-color="#CF4FFF"/>
<stop offset="1" stop-color="#FF4994"/>
</linearGradient>
</defs>
</svg>
