<svg width="1024" height="1024" viewBox="0 0 1024 1024" fill="none" xmlns="http://www.w3.org/2000/svg">
<mask id="mask0_4_101" style="mask-type:alpha" maskUnits="userSpaceOnUse" x="0" y="0" width="1024" height="1024">
<path d="M0 339.968C0 60.0043 60.0043 0 339.968 0H684.032C963.996 0 1024 60.0043 1024 339.968V684.032C1024 963.996 963.996 1024 684.032 1024H339.968C60.0043 1024 0 963.996 0 684.032V339.968Z" fill="black"/>
</mask>
<g mask="url(#mask0_4_101)">
<path fill-rule="evenodd" clip-rule="evenodd" d="M1024 0H0V1024H1024V0ZM502.583 607.652C517.206 581.814 524.517 550.095 524.517 512.494C524.517 474.893 517.206 443.228 502.583 417.501C487.96 391.664 468.225 372.149 443.377 358.955C418.53 345.652 390.823 339 360.259 339C329.474 339 301.658 345.652 276.81 358.955C252.072 372.149 232.392 391.664 217.769 417.501C203.257 443.228 196 474.893 196 512.494C196 549.875 203.257 581.485 217.769 607.322C232.392 633.049 252.072 652.619 276.81 666.033C301.658 679.336 329.474 685.988 360.259 685.988C390.823 685.988 418.53 679.391 443.377 666.198C468.225 652.894 487.96 633.379 502.583 607.652ZM422.103 461.369C427.49 475.222 430.184 492.264 430.184 512.494C430.184 532.724 427.49 549.82 422.103 563.783C416.825 577.637 408.964 588.191 398.52 595.448C388.185 602.594 375.431 606.167 360.259 606.167C345.086 606.167 332.277 602.594 321.833 595.448C311.498 588.191 303.637 577.637 298.249 563.783C292.972 549.82 290.333 532.724 290.333 512.494C290.333 492.264 292.972 475.222 298.249 461.369C303.637 447.406 311.498 436.851 321.833 429.705C332.277 422.449 345.086 418.82 360.259 418.82C375.431 418.82 388.185 422.449 398.52 429.705C408.964 436.851 416.825 447.406 422.103 461.369ZM659.296 609.539V681.37H568.261V343.618H659.296V513.154H662.595L723.944 428.056H826.193L740.035 539.067L828.832 681.37H724.604L672.931 592.117L659.296 609.539Z" fill="black"/>
</g>
</svg>
